<?xml version="1.0" encoding="utf-8"?>
<!-- Generator: Adobe Illustrator 17.0.0, SVG Export Plug-In . SVG Version: 6.00 Build 0)  -->
<!DOCTYPE svg PUBLIC "-//W3C//DTD SVG 1.1//EN" "http://www.w3.org/Graphics/SVG/1.1/DTD/svg11.dtd">
<svg version="1.1" id="Layer_1" xmlns="http://www.w3.org/2000/svg" xmlns:xlink="http://www.w3.org/1999/xlink" x="0px" y="0px"
	 width="26px" height="26px" viewBox="0 0 26 26" enable-background="new 0 0 26 26" xml:space="preserve">
<path d="M25.91,17.586c0.229,0.503,0.007,1.096-0.496,1.324l-11,5C14.283,23.97,14.142,24,14,24c-0.099,0-0.198-0.015-0.294-0.044
	l-13-4c-0.528-0.163-0.824-0.723-0.662-1.25c0.162-0.528,0.723-0.827,1.25-0.662l12.638,3.889l10.654-4.843
	C25.094,16.857,25.683,17.085,25.91,17.586z M13.932,17.933L1.294,14.044c-0.527-0.165-1.087,0.134-1.25,0.662
	c-0.163,0.527,0.134,1.087,0.662,1.25l13,4C13.802,19.985,13.901,20,14,20c0.142,0,0.283-0.03,0.414-0.09l11-5
	c0.503-0.229,0.725-0.821,0.496-1.324c-0.228-0.501-0.816-0.726-1.324-0.496L13.932,17.933z M0.001,11.05
	c-0.021-0.42,0.223-0.808,0.61-0.972l7.301-3.077c1.437-0.606,2.121-1.362,2.121-4.022c0-0.307,0.141-0.598,0.383-0.787
	c0.242-0.19,0.557-0.257,0.856-0.184l12.939,3.188c0.446,0.11,0.761,0.511,0.761,0.971v0.152c0.001,2.958,0.002,4.911-3.621,6.438
	c-2.425,1.022-6.88,3.125-6.924,3.147C14.293,15.968,14.146,16,14,16c-0.099,0-0.198-0.015-0.294-0.044l-13-4
	C0.304,11.832,0.022,11.47,0.001,11.05z M3.923,10.853l10,3.078c1.112-0.523,4.562-2.136,6.65-3.016
	c2.211-0.932,2.385-1.649,2.397-3.964L11.98,4.242c-0.193,2.052-0.971,3.624-3.29,4.602L3.923,10.853z"/>
</svg>
