<?xml version="1.0" encoding="UTF-8" standalone="no"?>
<!-- Created with Inkscape (http://www.inkscape.org/) -->

<svg
   xmlns:dc="http://purl.org/dc/elements/1.1/"
   xmlns:cc="http://creativecommons.org/ns#"
   xmlns:rdf="http://www.w3.org/1999/02/22-rdf-syntax-ns#"
   xmlns:svg="http://www.w3.org/2000/svg"
   xmlns="http://www.w3.org/2000/svg"
   xmlns:sodipodi="http://sodipodi.sourceforge.net/DTD/sodipodi-0.dtd"
   xmlns:inkscape="http://www.inkscape.org/namespaces/inkscape"
   width="1.7669237in"
   height="2.1662271in"
   viewBox="0 0 159.02313 194.96044"
   id="svg2"
   version="1.1"
   inkscape:version="0.91 r13725"
   sodipodi:docname="profile.svg">
  <defs
     id="defs4" />
  <sodipodi:namedview
     id="base"
     pagecolor="#ffffff"
     bordercolor="#666666"
     borderopacity="1.0"
     inkscape:pageopacity="0.0"
     inkscape:pageshadow="2"
     inkscape:zoom="0.98994949"
     inkscape:cx="-41.83092"
     inkscape:cy="86.428836"
     inkscape:document-units="px"
     inkscape:current-layer="layer1"
     showgrid="false"
     inkscape:window-width="1366"
     inkscape:window-height="741"
     inkscape:window-x="0"
     inkscape:window-y="0"
     inkscape:window-maximized="1"
     units="in"
     fit-margin-top="0"
     fit-margin-left="0"
     fit-margin-right="0"
     fit-margin-bottom="0" />
  <metadata
     id="metadata7">
    <rdf:RDF>
      <cc:Work
         rdf:about="">
        <dc:format>image/svg+xml</dc:format>
        <dc:type
           rdf:resource="http://purl.org/dc/dcmitype/StillImage" />
        <dc:title></dc:title>
      </cc:Work>
    </rdf:RDF>
  </metadata>
  <g
     inkscape:label="Layer 1"
     inkscape:groupmode="layer"
     id="layer1"
     transform="translate(-273.03167,-343.73969)">
    <path
       style="fill:#000000;stroke:none;stroke-opacity:1"
       d="m 298.88948,537.08703 c 0.72825,-1.9473 6.16003,-18.971 11.13275,-34.89108 2.48411,-7.95286 2.52709,-9.7527 0.18781,-7.86659 -1.92059,1.54854 -5.77417,-0.29039 -5.77417,-2.75542 0,-1.83273 -0.41242,-2.00016 -3.5,-1.42093 -2.82355,0.5297 -3.5,0.34519 -3.5,-0.95469 0,-1.76582 -1.06906,-2.08556 -2.55,-0.76268 -0.5225,0.46673 -2.075,0.51159 -3.45,0.0997 -1.375,-0.41191 -1.9375,-0.79379 -1.25,-0.84861 0.6875,-0.0548 1.25,-0.59782 1.25,-1.20667 0,-0.60884 -0.675,-0.84797 -1.5,-0.53138 -0.89383,0.34299 -1.5,0.009 -1.5,-0.82659 0,-0.78141 -1.2034,-1.54228 -2.71817,-1.71862 -2.1033,-0.24484 -2.93077,-1.06209 -3.65796,-3.61279 -0.61454,-2.15553 -1.40426,-3.10728 -2.28183,-2.75 -0.73812,0.3005 -1.98421,0.80692 -2.76908,1.12536 -1.05613,0.42851 -1.28171,0.0233 -0.86792,-1.55908 0.41998,-1.606 0.0233,-2.27819 -1.59403,-2.70113 -1.43701,-0.37579 -1.85125,-0.9382 -1.24543,-1.69092 0.49925,-0.62032 2.3753,-4.72786 4.16901,-9.12786 1.7937,-4.4 4.70348,-9.67834 4.70348,-9.67834 0,0 10.47769,-16.89167 11.26193,-25.91895 0,-1.43141 1.09891,-3.58648 2.5,-4.90273 1.5722,-1.47701 2.52139,-3.49007 2.55765,-5.42431 0.0797,-4.25313 5.48615,-22.63442 9.43434,-32.07569 2.37426,-5.67756 4.46993,-12.02918 7.94587,-24.0826 1.91639,-6.64543 3.92766,-13.24859 4.46947,-14.67367 l 0.98513,-2.59107 5.30377,1.40709 c 2.91707,0.77391 12.27877,2.80063 20.80377,4.50384 8.525,1.70321 21.575,4.83025 29,6.949 7.425,2.11874 17.17551,4.7828 21.6678,5.92014 12.09469,3.06206 17.32291,5.60259 22.3322,10.85177 2.475,2.59352 6.01925,5.85518 7.87611,7.24812 3.09113,2.31883 4.7411,6.57051 3.09195,7.96738 -0.32466,0.275 -2.66367,4.775 -5.1978,10 -2.53412,5.225 -7.18807,13.55 -10.34211,18.5 -3.15403,4.95 -6.83425,11.025 -8.17826,13.5 -1.34401,2.475 -3.07506,4.85986 -3.84677,5.29969 -2.73754,2.81394 -4.45613,7.38864 -5.2948,10.84996 0.13314,0.74269 -0.96176,3.99384 -2.43312,7.22478 -1.47136,3.23094 -2.6752,6.72454 -2.6752,7.76357 0,1.03903 -0.41824,2.67053 -0.92941,3.62557 -0.51118,0.95504 -1.66697,5.78643 -2.56842,10.73643 -2.14915,11.80131 -7.03972,27.70733 -9.42465,30.6526 -1.94608,3.18571 -2.07752,3.9086 -2.07752,3.9086 -0.97326,0.17874 -3.51951,0.73323 -4.97626,1.08367 -0.92395,0.22226 -1.61078,-0.53311 -1.83582,-2.01903 -0.33248,-2.19534 -0.69028,-2.32883 -4.7505,-1.77232 -3.61553,0.49557 -4.56396,0.27856 -5.37069,-1.22884 -0.70367,-1.3148 -2.04874,-1.80166 -4.77324,-1.72768 l -3.79349,0.103 -0.63114,13.5 c -0.62484,13.3652 -1.53488,19.99891 -2.74386,20.00117 -0.34375,6.4e-4 -0.48669,-8.67719 -0.31765,-19.28407 0.36254,-22.74872 -0.0663,-24.67243 -5.5326,-24.81678 -3.22075,-0.085 -3.40784,-0.20174 -1.27475,-0.79508 1.375,-0.38248 2.5,-1.34396 2.5,-2.13663 0,-1.86573 -3.17529,-2.46086 -5.88144,-1.10233 -1.16521,0.58495 -3.69356,1.44545 -5.61856,1.9122 -4.2828,1.03846 -4.19317,2.48879 0.21065,3.40842 2.53174,0.5287 2.36806,0.56722 -0.71065,0.16728 -2.2,-0.2858 -6.33022,-0.47625 -9.17827,-0.42324 -4.35869,0.0812 -5.27943,-0.22231 -5.81739,-1.91727 -1.1217,-3.53415 -2.31019,-2.16733 -2.37933,2.73633 -0.0664,4.71218 -8.1676,40.62592 -9.45436,41.91268 -1.81621,1.81621 -1.40407,-1.58475 1.84915,-15.25897 1.95015,-8.19704 3.78631,-15.69121 4.08035,-16.65371 0.29404,-0.9625 0.12246,-1.75 -0.3813,-1.75 -0.50376,0 -1.91871,3.79598 -3.14435,8.4355 -2.7263,10.32016 -7.56845,23.49291 -9.17955,24.97237 -0.90077,0.82717 -1.00784,0.60691 -0.44134,-0.90787 z m 88.51189,-60.06044 c 1.82577,-10.1244 1.84643,-10.9899 0.30299,-12.69538 -1.26138,-1.3938 -1.31203,-1.70326 -0.21242,-1.29772 2.51569,0.9278 3.57841,-0.68992 7.51937,-11.44646 4.40165,-12.01394 6.94122,-16.95479 16.96183,-33 9.22252,-14.76728 10.74715,-17.80436 10.12749,-20.17396 -0.43488,-1.66299 -0.28363,-1.75462 1.05816,-0.64103 1.35614,1.1255 1.4754,1.01521 0.89152,-0.82443 -0.43847,-1.3815 -0.19444,-2.30777 0.69824,-2.65032 0.75476,-0.28963 2.16224,-2.19131 3.12775,-4.22596 l 1.75546,-3.69936 -3.82841,-4.14247 c -9.48948,-10.26794 -9.63246,-10.37771 -11.31838,-8.68913 -0.852,0.85335 -2.72971,4.92544 -4.17268,9.0491 -4.94059,14.11905 -7.36321,20.49783 -7.97474,20.99756 -0.33652,0.275 -1.13398,2.075 -1.77212,4 -1.23547,3.72683 -7.08381,14.10216 -7.11251,12.61803 -0.009,-0.48508 0.86719,-2.31269 1.94792,-4.06135 2.83093,-4.58054 17.71689,-46.20816 16.83817,-47.08687 -1.60791,-1.60792 -11.44189,-4.23592 -67.30314,-17.98588 -7.7,-1.89531 -15.89832,-3.99374 -18.21849,-4.66316 -2.32016,-0.66942 -4.47123,-0.96439 -4.78014,-0.65547 -0.30891,0.30891 -1.64924,5.01059 -2.9785,10.44818 -1.32927,5.43758 -6.0407,20.5923 -10.46986,33.67715 -4.54854,13.43754 -8.05301,25.4636 -8.05301,27.63499 0,2.99717 -0.55093,4.20534 -2.5,5.48242 -1.54814,1.01438 -2.5,2.57712 -2.5,4.10444 0,2.43794 -13.14795,31.58794 -15.55541,34.48752 -1.62012,1.9513 -4.60158,9.17634 -4.02472,9.7532 0.24537,0.24537 1.95311,-0.0512 3.79497,-0.65909 1.84187,-0.60787 4.90952,-0.98095 6.817,-0.82907 3.05447,0.24321 3.49746,0.63154 3.71376,3.25555 0.13508,1.63868 0.73722,5.37484 1.33809,8.30259 0.89941,4.38236 1.38623,5.19718 2.7544,4.61023 0.91405,-0.39213 3.68691,-1.38865 6.16191,-2.21448 2.475,-0.82584 5.97777,-2.11294 7.78393,-2.86022 5.21382,-2.15719 8.07428,-1.77183 8.81711,1.18786 0,0 0.5843,2.92454 1.32862,7.14441 0.089,4.03792 1.34475,4.80892 4.81824,2.95815 1.51363,-0.8065 6.35205,-2.46656 10.75205,-3.68903 4.4,-1.22246 9.29866,-2.88177 10.88592,-3.68735 2.75629,-1.39889 2.9903,-1.33685 5.21016,1.38129 1.27834,1.56528 3.44117,5.16583 4.80629,8.00122 1.36512,2.83539 2.99135,5.47004 3.61386,5.85477 2.2165,1.36987 5.71923,-3.60013 7.9724,-11.31198 1.23702,-4.23393 3.04024,-9.04805 4.00715,-10.69805 0.9669,-1.65 2.54937,-5.475 3.51659,-8.5 0.96722,-3.025 2.44401,-6.85 3.28175,-8.5 0.83774,-1.65 1.87171,-4.35 2.29772,-6 2.88847,-11.18764 4.58267,-15.75647 9.02017,-24.32508 5.50918,-10.63797 5.49541,-9.7933 -0.0949,5.82508 -2.06706,5.775 -4.26036,13.17138 -4.87399,16.4364 -0.98062,5.21773 -0.90549,6.1731 0.62061,7.89165 1.6859,1.89851 1.67099,1.91514 -0.5137,0.57306 -1.2375,-0.76021 -2.26623,-2.28646 -2.28608,-3.39166 -0.0198,-1.1052 -0.9111,0.46555 -1.98058,3.49055 -1.06948,3.025 -3.74239,9.1 -5.93979,13.5 -3.66261,7.33382 -9.90072,21.7991 -9.90072,25.87962 2.61418,-0.88742 4.87814,-4.12567 7.96307,-5.37962 2.70428,2.01655 3.77866,8.40401 5.56874,10.85388 7.13361,-9.47344 8.06089,-17.2528 10.29088,-29.41432 z m -1.04119,-18.18956 -2.42431,-2.75 2.75,2.42431 c 2.57029,2.26589 3.20859,3.07569 2.42431,3.07569 -0.17912,0 -1.41662,-1.2375 -2.75,-2.75 z m -55.92431,-5.68485 c -1.925,-0.73248 -5.3,-1.83014 -7.5,-2.43924 -2.2,-0.60909 -6.33687,-2.45606 -9.19305,-4.10438 -4.38842,-2.53258 -5.6667,-3.98939 -8.25,-9.4022 -1.68132,-3.5229 -3.05695,-8.5123 -3.05695,-8.5123 0,0 -0.58667,-2.50256 0.95529,-8.86011 1.98491,-8.37054 3.09266,-7.22963 2.40375,2.47571 -0.54865,7.72941 -0.36787,9.33974 1.44811,12.89935 2.52367,4.9468 7.35233,9.32237 12.70195,11.51009 12.51647,5.11859 23.04301,6.16297 30.04804,2.98121 4.03437,-1.83246 11.42522,-9.64691 15.00337,-15.86328 1.02889,-1.7875 2.22368,-3.25 2.6551,-3.25 1.15677,0 1.06033,0.28839 -2.27698,6.80898 -3.2775,6.40374 -10.38136,13.22458 -16.38653,15.7337 -4.30044,1.79684 -13.85857,1.80842 -18.5521,0.0225 z m 21.5912,-32.67207 c -4.73342,-3.72331 -2.96055,-13.88017 3.34955,-19.18977 3.88396,-3.26814 7.22752,-3.16953 9.98263,-1.25707 2.18158,1.51435 2.25447,3.35108 1.83143,7.75365 -0.54717,5.69454 -4.62922,11.49026 -9.48969,13.47354 -2.72029,1.10999 -3.38737,1.01825 -5.67392,-0.78035 z m -37.3912,-9.09308 c -3.19435,-3.19435 0.952,-16.4146 6.52249,-20.79635 8.68831,-6.83423 12.74354,3.45463 5.62311,14.26688 -4.55585,6.91796 -9.23929,9.43578 -12.1456,6.52947 z m 110.25678,-26.57224 c -1.12377,-0.95027 -2.67918,-2.62776 -3.45647,-3.72776 -0.77728,-1.1 0.25467,-0.44923 2.29322,1.44617 3.34897,3.11377 4.19195,4.09701 3.45647,4.03159 -0.1375,-0.0122 -1.16945,-0.79973 -2.29322,-1.75 z m -7.53247,-8.97776 -2.42431,-2.75 2.75,2.42431 c 2.57029,2.26589 3.20859,3.07569 2.42431,3.07569 -0.17912,0 -1.41662,-1.2375 -2.75,-2.75 z m -77.13069,144.74881 c -0.26738,-16.39257 0.18417,-21.01963 1.58571,-16.24881 0.95178,3.23986 1.88672,27.01832 1.20516,30.65132 -1.49291,7.95788 -2.51191,2.69922 -2.79087,-14.40251 z M 328.877,499.14511 c -1.90515,-1.41519 -1.90267,-1.43929 0.13354,-1.3004 2.42387,0.16533 5.38949,2.74232 3.15589,2.74232 -0.74157,0 -2.22181,-0.64886 -3.28943,-1.44192 z"
       id="path4147-3"
       inkscape:connector-curvature="0"
       sodipodi:nodetypes="sssssssccscsssscssssccssssscssssssssssccssssccssssscssscsssssscssssssssscssssssssscssssscsssscssssssscssssssccsssssssssssssssscssccccscssscsssccssssssssccssasssssssssscsscsssssssssss" />
  </g>
</svg>
