<?xml version="1.0" encoding="UTF-8" standalone="no"?>
<svg
   xmlns:dc="http://purl.org/dc/elements/1.1/"
   xmlns:cc="http://creativecommons.org/ns#"
   xmlns:rdf="http://www.w3.org/1999/02/22-rdf-syntax-ns#"
   xmlns:svg="http://www.w3.org/2000/svg"
   xmlns="http://www.w3.org/2000/svg"
   xmlns:sodipodi="http://sodipodi.sourceforge.net/DTD/sodipodi-0.dtd"
   xmlns:inkscape="http://www.inkscape.org/namespaces/inkscape"
   version="1.1"
   xml:space="preserve"
   height="78.364182"
   width="76.750099"
   enable-background="new 0 0 1000 1000"
   y="0px"
   x="0px"
   viewBox="0 0 77.169786 76.075351"
   id="svg2"
   inkscape:version="0.91 r13725"
   sodipodi:docname="quill.org.svg"><metadata
     id="metadata14"><rdf:RDF><cc:Work
         rdf:about=""><dc:format>image/svg+xml</dc:format><dc:type
           rdf:resource="http://purl.org/dc/dcmitype/StillImage" /><dc:title></dc:title></cc:Work></rdf:RDF></metadata><defs
     id="defs12" /><sodipodi:namedview
     pagecolor="#ffffff"
     bordercolor="#666666"
     borderopacity="1"
     objecttolerance="10"
     gridtolerance="10"
     guidetolerance="10"
     inkscape:pageopacity="0"
     inkscape:pageshadow="2"
     inkscape:window-width="1366"
     inkscape:window-height="741"
     id="namedview10"
     showgrid="false"
     fit-margin-top="0"
     fit-margin-left="0"
     fit-margin-right="5"
     fit-margin-bottom="0"
     inkscape:zoom="2.2250294"
     inkscape:cx="26.345651"
     inkscape:cy="17.593543"
     inkscape:window-x="0"
     inkscape:window-y="0"
     inkscape:window-maximized="1"
     inkscape:current-layer="svg2"
     showguides="false" /><path
     style="fill:#010101;stroke:none;stroke-width:0.90659136;stroke-opacity:1"
     d="m 31.027045,49.917324 c 7.968482,2.461036 14.116761,0.107333 21.994253,2.776987 5.141075,2.71142 10.265131,11.654626 9.926031,16.398424 0,0 5.507691,4.236634 8.766614,7.712585 C 61.431111,47.010111 38.282719,18.314413 0.93726943,-1.0447327 -1.4250836,4.8680714 5.6749164,11.805554 5.6749164,11.805554 c 0,0 8.2347986,2.745404 10.5400766,3.701713 -1.918037,2.069621 -6.6281526,2.996312 -6.6281526,2.996312 3.3663356,5.952878 18.3001106,9.491786 15.2477186,10.347498 -3.686581,0.977188 -7.803785,-0.061 -7.803785,-0.061 5.062292,4.423237 12.513186,10.811805 19.220948,11.289584 -3.788572,2.573352 -8.334774,0.872972 -12.800745,1.354308 2.54247,2.692067 4.691425,6.541131 7.576068,8.483353 z"
     id="path8"
     inkscape:connector-curvature="0"
     sodipodi:nodetypes="ccccccccccccc" /></svg>