<?xml version="1.0" encoding="UTF-8" standalone="no"?>
<svg id="Icons"
     xmlns="http://www.w3.org/2000/svg"
     xmlns:xlink="http://www.w3.org/1999/xlink"
     width="100px"
     height="100px"
     >
  <path id="circle"
        style="fill:none;stroke:#000000;stroke-width:7"
        d="m 52.754237,46.292374 a 43.75,43.75 0 1 1 -87.5,0 43.75,43.75 0 1 1 87.5,0 z"
        transform="translate(40.995763,3.7076267)"
        />
  <path id="octocat"
        style="fill:#000000"
        d="m 71.556456,23.521746 c 1.17,2.657 1.928,7.07 0.797,10.301 9.992024,11.193398 5.943408,32.615894 -13.738,33.078 0.883,1.921 2.574,2.653 2.987,5.744 0.616,4.618 -0.964,11.381 0.595,14.459 0.748,1.475 1.967,1.514 2.789,2.775 -2.012,2.381 -7.001,-0.267 -7.568,-2.775 -0.973,-4.295 1.482,-10.954 -1.193,-13.865 0.189,4.684 -1.108,11.264 0.199,15.449 0.515,1.646 2.002,2.281 1.593,3.765 -9.352,0.95 -5.444,-12.104 -6.972,-19.809 -1.411,0.1 -0.791,2.113 -0.796,2.972 -0.04,7.524 1.54,17.844 -6.57,16.837 -0.237,-1.581 1.088,-2.119 1.593,-3.563 1.479,-4.234 -0.277,-10.542 0.401,-15.651 -3.095,2.333 0.325,10.48 -1.593,14.657 -1.105,2.404 -4.666,3.45 -7.367,2.377 0.352,-1.79 2.2,-1.501 2.984,-3.169 1.096,-2.325 0.008,-5.674 0.399,-9.111 -5.729,1.143 -10.173,-0.166 -12.348,-3.764 -0.973,-1.615 -1.214,-3.52 -2.39,-4.951 -1.17,-1.432 -3.04,-1.625 -3.582,-3.564 7.095,-1.708 7.367,7.302 13.739,7.525 1.954,0.071 2.97,-0.564 4.778,-0.989 0.506,-2.272 1.589,-3.966 3.186,-5.153 -19.678281,-2.152707 -24.962171,-18.55295 -15.528,-32.482 -1.289,-3.249 -0.889,-8.563 0.796,-11.093 5.079,0.228 8.159,2.443 11.35,4.557 3.957,-1.125 8.118,-1.685 13.54,-1.387 2.28,0.126 4.652,1.151 6.369,0.989 1.685,-0.158 3.542,-2.049 5.178,-2.771 2.131,-0.941 3.934,-1.3 6.372,-1.388 z"
        />
  <g id="wiskers">
    <path id="w1" style="fill:#000000" d="m 76.234343,55.131811 c 6.442189,0.315737 14.094681,0.929062 19.613113,1.865935 -5.936486,-0.609 -16.785713,-1.555286 -19.790014,-1.393485 z"/>
    <path id="w2" style="fill:#000000" d="m 75.381346,57.213472 c 3.106927,0.283342 14.475623,1.208423 20.26911,2.954274 -5.686095,-1.081447 -17.148043,-2.415801 -20.449282,-2.620345 z"/>
  </g>
  <use x="0" y="0" xlink:href="#wiskers" id="wiskers_clone" transform="matrix(-1,0,0,1,101.31078,0)" width="100" height="100" />
</svg>
